<svg xmlns="http://www.w3.org/2000/svg" xmlns:xlink="http://www.w3.org/1999/xlink" width="500" zoomAndPan="magnify" viewBox="0 0 375 374.999991" height="500" preserveAspectRatio="xMidYMid meet" version="1.0"><defs><g/><clipPath id="593af9d215"><path d="M 268.496094 152.664062 L 287.738281 152.664062 L 287.738281 171.902344 L 268.496094 171.902344 Z M 268.496094 152.664062 " clip-rule="nonzero"/></clipPath><clipPath id="ad0c19068b"><path d="M 287.738281 142.875 L 297.523438 142.875 L 297.523438 152.664062 L 287.738281 152.664062 Z M 287.738281 142.875 " clip-rule="nonzero"/></clipPath></defs><g fill="#0e0e0e" fill-opacity="1"><g transform="translate(149.837764, 212.998272)"><g><path d="M 26.40625 -43.09375 C 27.613281 -43.09375 28.640625 -42.984375 29.484375 -42.765625 L 29.484375 -34 C 24.847656 -34.3125 21.421875 -33.320312 19.203125 -31.03125 C 16.992188 -28.738281 15.890625 -24.828125 15.890625 -19.296875 L 15.890625 0 L 4.984375 0 L 4.984375 -42.0625 L 15.890625 -42.0625 L 15.890625 -34.390625 L 19.21875 -40.25 C 21.269531 -42.144531 23.664062 -43.09375 26.40625 -43.09375 Z M 26.40625 -43.09375 "/></g></g></g><g fill="#0e0e0e" fill-opacity="1"><g transform="translate(172.842298, 212.998272)"><g><path d="M 18.03125 -34.546875 L 18.03125 -15.09375 C 18.03125 -13.351562 18.054688 -12.117188 18.109375 -11.390625 C 18.265625 -9.328125 18.867188 -7.992188 19.921875 -7.390625 C 20.972656 -6.785156 23.003906 -6.585938 26.015625 -6.796875 L 26.015625 0.3125 C 23.742188 0.6875 21.34375 0.875 18.8125 0.875 C 14.8125 0.875 11.953125 0.203125 10.234375 -1.140625 C 8.523438 -2.484375 7.539062 -4.6875 7.28125 -7.75 C 7.164062 -9.007812 7.109375 -11.035156 7.109375 -13.828125 L 7.109375 -34.546875 L 0.953125 -34.546875 L 0.953125 -41.75 L 7.109375 -41.75 L 7.109375 -52.109375 L 18.03125 -52.109375 L 18.03125 -41.75 L 26.71875 -41.75 L 26.71875 -34.546875 Z M 18.03125 -34.546875 "/></g></g></g><g fill="#0e0e0e" fill-opacity="1"><g transform="translate(194.344795, 212.998272)"><g><path d="M 20 -43.171875 C 24.851562 -43.171875 28.726562 -41.957031 31.625 -39.53125 C 34.519531 -37.101562 36.207031 -33.890625 36.6875 -29.890625 L 25.78125 -29.890625 C 25.039062 -33.941406 22.878906 -35.96875 19.296875 -35.96875 C 17.710938 -35.96875 16.484375 -35.554688 15.609375 -34.734375 C 14.742188 -33.921875 14.3125 -32.832031 14.3125 -31.46875 C 14.3125 -29.882812 15.019531 -28.617188 16.4375 -27.671875 C 17.863281 -26.722656 20.34375 -25.800781 23.875 -24.90625 C 28.457031 -23.75 31.878906 -22.140625 34.140625 -20.078125 C 36.410156 -18.023438 37.546875 -15.15625 37.546875 -11.46875 C 37.546875 -7.40625 35.925781 -4.289062 32.6875 -2.125 C 29.445312 0.03125 25.296875 1.109375 20.234375 1.109375 C 14.960938 1.109375 10.691406 -0.046875 7.421875 -2.359375 C 4.160156 -4.679688 2.238281 -8.164062 1.65625 -12.8125 L 12.578125 -12.8125 C 12.992188 -10.59375 13.898438 -8.914062 15.296875 -7.78125 C 16.691406 -6.65625 18.390625 -6.09375 20.390625 -6.09375 C 22.242188 -6.09375 23.734375 -6.484375 24.859375 -7.265625 C 25.992188 -8.054688 26.5625 -9.191406 26.5625 -10.671875 C 26.5625 -12.304688 25.796875 -13.632812 24.265625 -14.65625 C 22.742188 -15.6875 20.164062 -16.648438 16.53125 -17.546875 C 12.257812 -18.609375 8.988281 -20.125 6.71875 -22.09375 C 4.457031 -24.070312 3.328125 -26.773438 3.328125 -30.203125 C 3.328125 -34.203125 4.835938 -37.363281 7.859375 -39.6875 C 10.890625 -42.007812 14.9375 -43.171875 20 -43.171875 Z M 20 -43.171875 "/></g></g></g><g fill="#0e0e0e" fill-opacity="1"><g transform="translate(226.59873, 212.998272)"><g><path d="M 44.828125 -42.0625 L 27.90625 1.578125 C 25.695312 7.222656 23.300781 11.140625 20.71875 13.328125 C 18.132812 15.515625 14.679688 16.609375 10.359375 16.609375 C 8.515625 16.609375 6.878906 16.5 5.453125 16.28125 L 5.453125 8.78125 C 6.191406 8.882812 7.273438 8.9375 8.703125 8.9375 C 12.441406 8.9375 15.078125 7.066406 16.609375 3.328125 L 17.15625 1.96875 L 0 -42.0625 L 12.171875 -42.0625 L 22.609375 -8.296875 L 32.890625 -42.0625 Z M 44.828125 -42.0625 "/></g></g></g><g clip-path="url(#593af9d215)"><path fill="#ffbd59" d="M 268.496094 152.664062 L 287.738281 152.664062 L 287.738281 171.902344 L 268.496094 171.902344 Z M 268.496094 152.664062 " fill-opacity="1" fill-rule="nonzero"/></g><g clip-path="url(#ad0c19068b)"><path fill="#ffbd59" d="M 287.738281 142.875 L 297.523438 142.875 L 297.523438 152.664062 L 287.738281 152.664062 Z M 287.738281 142.875 " fill-opacity="1" fill-rule="nonzero"/></g><g fill="#0e0e0e" fill-opacity="1"><g transform="translate(154.469796, 228.022778)"><g><path d="M 12.515625 -10.375 L 12.515625 0 L 10.453125 0 L 10.453125 -4.796875 C 10.453125 -6.441406 10.460938 -7.625 10.484375 -8.34375 C 10.203125 -7.132812 9.878906 -5.957031 9.515625 -4.8125 L 8.0625 0 L 5.796875 0 L 4.3125 -4.828125 C 3.9375 -6.097656 3.625 -7.265625 3.375 -8.328125 C 3.394531 -7.609375 3.40625 -6.429688 3.40625 -4.796875 L 3.40625 0 L 1.34375 0 L 1.34375 -10.375 L 4.609375 -10.375 L 6.953125 -1.90625 L 9.296875 -10.375 Z M 12.515625 -10.375 "/></g></g></g><g fill="#0e0e0e" fill-opacity="1"><g transform="translate(175.687753, 228.022778)"><g><path d="M 6.953125 -3.125 L 3.46875 -3.125 L 2.4375 0 L 0.21875 0 L 3.96875 -10.375 L 6.5625 -10.375 L 10.234375 0 L 7.984375 0 Z M 5.234375 -8.59375 L 4 -4.765625 L 6.4375 -4.765625 Z M 5.234375 -8.59375 "/></g></g></g><g fill="#0e0e0e" fill-opacity="1"><g transform="translate(193.585539, 228.022778)"><g><path d="M 8.859375 -2.609375 C 8.984375 -1.378906 9.234375 -0.507812 9.609375 0 L 7.328125 0 C 7.078125 -0.6875 6.910156 -1.457031 6.828125 -2.3125 C 6.679688 -3.488281 6.210938 -4.101562 5.421875 -4.15625 C 5.234375 -4.164062 4.960938 -4.171875 4.609375 -4.171875 L 3.40625 -4.171875 L 3.40625 0 L 1.34375 0 L 1.34375 -10.375 L 5.125 -10.375 C 5.695312 -10.375 6.195312 -10.347656 6.625 -10.296875 C 7.445312 -10.191406 8.101562 -9.914062 8.59375 -9.46875 C 9.09375 -9.03125 9.34375 -8.390625 9.34375 -7.546875 C 9.34375 -6.890625 9.160156 -6.347656 8.796875 -5.921875 C 8.441406 -5.503906 7.945312 -5.203125 7.3125 -5.015625 C 8.207031 -4.679688 8.722656 -3.878906 8.859375 -2.609375 Z M 3.40625 -5.734375 L 4.84375 -5.734375 C 5.25 -5.734375 5.53125 -5.734375 5.6875 -5.734375 C 6.675781 -5.828125 7.171875 -6.328125 7.171875 -7.234375 C 7.171875 -7.703125 7.050781 -8.046875 6.8125 -8.265625 C 6.582031 -8.492188 6.242188 -8.640625 5.796875 -8.703125 C 5.554688 -8.734375 5.269531 -8.75 4.9375 -8.75 L 3.40625 -8.75 Z M 3.40625 -5.734375 "/></g></g></g><g fill="#0e0e0e" fill-opacity="1"><g transform="translate(211.152808, 228.022778)"><g><path d="M 9.453125 -8.75 L 5.9375 -8.75 L 5.9375 0 L 3.859375 0 L 3.859375 -8.75 L 0.34375 -8.75 L 0.34375 -10.375 L 9.453125 -10.375 Z M 9.453125 -8.75 "/></g></g></g><g fill="#ffbd59" fill-opacity="1"><g transform="translate(100.715799, 212.998272)"><g><path d="M 36.609375 -16.4375 L 18.265625 -16.4375 L 12.8125 0 L 1.1875 0 L 20.875 -54.546875 L 34.546875 -54.546875 L 53.84375 0 L 41.984375 0 Z M 27.515625 -45.21875 L 21.03125 -25.0625 L 33.84375 -25.0625 Z M 27.515625 -45.21875 "/></g></g></g></svg>